#!OML:ASF X:\für Bonn\!DataBase\2005_08_11_Bastian_Final\c3d\Bastian.ASF
:FULLY-SPECIFIED
:DEGREES
31
root 4.17451 16.2472 -9.89573 166.848 -9.03258 -180.219
lowerback 10.7702 -7.12391 -6.07725
upperback 8.89984 -11.3941 1.30507
thorax 4.88602 -6.68083 5.24699
lowerneck -1.90409 -5.22938 -3.14914
upperneck -2.52066 -6.75772 6.98719
head -0.0931414 -3.33267 2.6958
rclavicle 1.56642e-013 -6.0033e-014
rhumerus 6.92098 35.2382 -84.3401
rradius 120.545
rwrist 5.75331
rhand -25.3058 9.68847
rfingers 7.12502
rthumb 1.2162 -20.2878
lclavicle 1.56642e-013 -6.0033e-014
lhumerus 2.40345 -46.8721 98.1127
lradius 118.832
lwrist 29.7064
lhand -18.0413 -25.1082
lfingers 7.12502
lthumb 8.23048 4.71152
rfemur -36.0956 -8.90235 18.1999
rtibia 85.1634
rfoot -15.7737 0.885033
rtoes 5.87597
lfemur 22.6606 -3.97736 -18.7719
ltibia 29.1204
lfoot -28.0621 -15.3206
ltoes -7.18219
32
root 4.18728 16.2561 -10.0135 166.961 -9.81974 -180.12
lowerback 10.8167 -7.2231 -6.18463
upperback 8.82784 -11.5191 1.3842
thorax 4.84279 -6.74154 5.40098
lowerneck -1.69443 -5.43179 -3.03201
upperneck -2.43708 -7.04043 7.00175
head -0.0913977 -3.47904 2.67993
rclavicle -9.44227e-015 2.26615e-014
rhumerus 7.01296 35.0619 -84.0085
rradius 120.709
rwrist 5.66894
rhand -25.3071 9.51293
rfingers 7.12502
rthumb 1.21493 -20.4634
lclavicle -9.44227e-015 2.26615e-014
lhumerus 2.79123 -47.1288 98.082
lradius 118.706
lwrist 29.8373
lhand -18.1892 -25.2723
lfingers 7.12502
lthumb 8.08777 4.55294
rfemur -36.8333 -9.05359 17.9968
rtibia 83.2699
rfoot -15.9886 1.19479
rtoes 5.84911
lfemur 23.5254 -4.47431 -18.604
ltibia 27.6761
lfoot -27.6036 -15.4671
ltoes -7.67376
33
root 4.20005 16.2623 -10.1333 167.136 -10.596 -180.037
lowerback 10.7943 -7.31467 -6.25127
upperback 8.74478 -11.6188 1.43993
thorax 4.80776 -6.78262 5.49916
lowerneck -1.48201 -5.64211 -2.88074
upperneck -2.38275 -7.33006 7.03436
head -0.0998203 -3.62876 2.6649
rclavicle 1.42131e-014 -1.39149e-014
rhumerus 7.03925 34.839 -83.722
rradius 120.881
rwrist 5.63575
rhand -25.3212 9.42043
rfingers 7.12502
rthumb 1.20135 -20.5559
lclavicle 1.42131e-014 -1.39149e-014
lhumerus 3.19221 -47.4323 97.9794
lradius 118.569
lwrist 30.0183
lhand -18.314 -25.4395
lfingers 7.12502
lthumb 7.96728 4.39034
rfemur -37.551 -9.15496 17.7564
rtibia 81.3794
rfoot -16.3489 1.36629
rtoes 4.98455
lfemur 24.1835 -4.92668 -18.4175
ltibia 26.5649
lfoot -27.3867 -15.6381
ltoes -8.39235
34
root 4.21313 16.2655 -10.2539 167.317 -11.382 -179.95
lowerback 10.78 -7.41129 -6.31281
upperback 8.63764 -11.7219 1.51042
thorax 4.7455 -6.82265 5.614
lowerneck -1.24228 -5.84846 -2.78893
upperneck -2.32598 -7.61322 7.10534
head -0.108754 -3.77533 2.67462
rclavicle -4.06515e-014 0
rhumerus 6.9693 34.6235 -83.4259
rradius 121.038
rwrist 5.60508
rhand -25.3664 9.42436
rfingers 7.12502
rthumb 1.15768 -20.5522
lclavicle -4.06515e-014 0
lhumerus 3.64889 -47.6588 97.8663
lradius 118.38
lwrist 30.232
lhand -18.3601 -25.6092
lfingers 7.12502
lthumb 7.92283 4.2223
rfemur -38.1607 -9.25718 17.4867
rtibia 79.4345
rfoot -16.7652 1.41334
rtoes 3.77231
lfemur 24.827 -5.35424 -18.1872
ltibia 25.4692
lfoot -27.2184 -15.8356
ltoes -9.08593
35
root 4.22583 16.2638 -10.3758 167.518 -12.1528 -179.892
lowerback 10.7437 -7.50178 -6.34868
upperback 8.51923 -11.8092 1.56427
thorax 4.67146 -6.85007 5.6959
lowerneck -0.950238 -6.05819 -2.68323
upperneck -2.33948 -7.89689 7.15639
head -0.150225 -3.92399 2.67928
rclavicle 2.68359e-014 -2.22639e-014
rhumerus 6.77864 34.3927 -83.1538
rradius 121.225
rwrist 5.61768
rhand -25.46 9.49886
rfingers 7.12502
rthumb 1.06727 -20.4782
lclavicle 2.68359e-014 -2.22639e-014
lhumerus 4.16182 -47.9148 97.7142
lradius 118.184
lwrist 30.4449
lhand -18.4066 -25.7206
lfingers 7.12502
lthumb 7.87791 4.11261
rfemur -38.676 -9.36639 17.1599
rtibia 77.4341
rfoot -17.2062 1.30969
rtoes 2.53679
lfemur 25.4372 -5.74956 -17.9629
ltibia 24.4161
lfoot -27.0906 -16.0945
ltoes -9.73543
36
root 4.23926 16.2542 -10.4991 167.729 -12.9189 -179.831
lowerback 10.6946 -7.58697 -6.37164
upperback 8.38701 -11.8844 1.61789
thorax 4.58488 -6.86848 5.77013
lowerneck -0.669588 -6.28222 -2.59955
upperneck -2.32212 -8.19984 7.23292
head -0.177037 -4.08152 2.69558
rclavicle -8.50798e-014 2.42517e-014
rhumerus 6.47338 34.1503 -82.9503
rradius 121.43
rwrist 5.69242
rhand -25.5937 9.59992
rfingers 7.12502
rthumb 0.938164 -20.3778
lclavicle -8.50798e-014 2.42517e-014
lhumerus 4.78364 -48.1969 97.4596
lradius 118.007
lwrist 30.6506
lhand -18.5538 -25.7702
lfingers 7.12502
lthumb 7.73586 4.06828
rfemur -39.0967 -9.50824 16.8155
rtibia 75.3546
rfoot -17.6442 1.10961
rtoes 1.3714
lfemur 26.047 -6.13129 -17.7015
ltibia 23.3506
lfoot -26.9811 -16.3922
ltoes -10.3343
37
root 4.2534 16.2387 -10.6227 167.94 -13.6608 -179.797
lowerback 10.6538 -7.66352 -6.39675
upperback 8.25141 -11.9484 1.66007
thorax 4.4863 -6.88042 5.83554
lowerneck -0.36559 -6.49765 -2.5882
upperneck -2.33299 -8.48768 7.37737
head -0.211131 -4.23172 2.7495
rclavicle 9.58142e-014 -5.04913e-014
rhumerus 6.20214 33.9352 -82.7208
rradius 121.676
rwrist 5.74911
rhand -25.73 9.62307
rfingers 7.12502
rthumb 0.806564 -20.3552
lclavicle 9.58142e-014 -5.04913e-014
lhumerus 5.43801 -48.4439 97.1201
lradius 117.878
lwrist 30.8231
lhand -18.7186 -25.722
lfingers 7.12502
lthumb 7.57674 4.12226
rfemur -39.437 -9.58011 16.4222
rtibia 73.2175
rfoot -18.0101 0.81029
rtoes 0.477603
lfemur 26.6877 -6.51669 -17.4671
ltibia 22.2262
lfoot -26.8142 -16.7162
ltoes -10.7336
38
root 4.27032 16.2244 -10.7487 168.159 -14.3899 -179.803
lowerback 10.621 -7.73111 -6.48003
upperback 8.09366 -12.0027 1.70772
thorax 4.37222 -6.88827 5.94034
lowerneck -0.0155866 -6.7199 -2.64524
upperneck -2.3658 -8.78417 7.5435
head -0.255033 -4.38749 2.82579
rclavicle 1.93815e-014 7.95139e-016
rhumerus 5.86293 33.7248 -82.5267
rradius 121.963
rwrist 5.79171
rhand -25.801 9.59582
rfingers 7.12502
rthumb 0.737972 -20.3826
lclavicle 1.93815e-014 7.95139e-016
lhumerus 6.04495 -48.6365 96.8381
lradius 117.753
lwrist 30.9528
lhand -18.8887 -25.6629
lfingers 7.12502
lthumb 7.41262 4.18722
rfemur -39.6923 -9.54909 15.9788
rtibia 71.0162
rfoot -18.322 0.369092
rtoes -0.191224
lfemur 27.359 -6.80691 -17.1893
ltibia 21.0004
lfoot -26.5591 -17.1596
ltoes -11.1652
39
root 4.28928 16.2123 -10.8759 168.347 -15.1032 -179.807
lowerback 10.6098 -7.78242 -6.56992
upperback 7.95004 -12.042 1.75785
thorax 4.26163 -6.89155 6.05315
lowerneck 0.348132 -6.9428 -2.74654
upperneck -2.42653 -9.07971 7.74286
head -0.30584 -4.54339 2.92321
rclavicle 2.43511e-014 -3.61788e-014
rhumerus 5.46849 33.5171 -82.3373
rradius 122.259
rwrist 5.78351
rhand -25.849 9.53864
rfingers 7.12502
rthumb 0.691569 -20.44
lclavicle 2.43511e-014 -3.61788e-014
lhumerus 6.60864 -48.7577 96.6176
lradius 117.62
lwrist 31.0978
lhand -18.9688 -25.5488
lfingers 7.12502
lthumb 7.33523 4.30407
rfemur -39.8132 -9.38726 15.5091
rtibia 68.7592
rfoot -18.5932 -0.219134
rtoes -0.509993
lfemur 28.1108 -7.08883 -16.8866
ltibia 19.6448
lfoot -26.1931 -17.6575
ltoes -11.4225
40
root 4.31221 16.1969 -11.0039 168.531 -15.8011 -179.852
lowerback 10.6231 -7.81859 -6.68985
upperback 7.79284 -12.061 1.77662
thorax 4.1191 -6.88193 6.15529
lowerneck 0.791057 -7.16535 -2.88839
upperneck -2.49449 -9.3744 7.9969
head -0.367126 -4.70068 3.05099
rclavicle 1.0958e-013 -3.89618e-014
rhumerus 4.97419 33.2911 -82.1865
rradius 122.561
rwrist 5.72872
rhand -25.9608 9.52816
rfingers 7.12502
rthumb 0.583586 -20.4508
lclavicle 1.0958e-013 -3.89618e-014
lhumerus 7.06159 -48.8728 96.4316
lradius 117.489
lwrist 31.2437
lhand -19.0617 -25.4207
lfingers 7.12502
lthumb 7.24559 4.43522
rfemur -39.866 -9.06414 14.9759
rtibia 66.5839
rfoot -18.8634 -0.929964
rtoes -0.159875
lfemur 28.635 -7.32705 -16.5714
ltibia 18.7634
lfoot -26.0126 -18.2734
ltoes -11.413
